<svg width="106" height="26" viewBox="0 0 106 26" fill="none" xmlns="http://www.w3.org/2000/svg">
<path d="M102.059 3.18935V9.11243H104.142V11.9763H102.059V17.3136C102.059 17.8343 102.189 18.2248 102.45 18.4852C102.71 18.7456 103.101 18.8757 103.621 18.8757C103.882 18.8757 105.118 18.8757 105.118 18.8757V22.2604C105.118 22.2604 102.84 22.2604 102.515 22.2604C101.473 22.2604 100.172 22.0651 99.2604 21.2189C98.3491 20.3728 97.9586 19.2663 97.9586 17.7042V11.9113H96.071V9.04733H97.9586V3.18935H102.059ZM89.8876 22.5207C88 22.5207 86.3728 21.8698 85.2663 20.6982C84.0947 19.5266 83.574 17.9645 83.574 16.142V15.6864C83.574 13.6686 84.0947 12.0414 85.1361 10.7396C86.1775 9.50296 87.6746 8.85208 89.6272 8.85208C91.3846 8.85208 92.8166 9.37278 93.7929 10.4142C94.8343 11.5207 95.2899 12.9527 95.2899 14.7752V16.9231H87.8047V16.9882C87.8698 17.7041 88.1953 18.1598 88.6509 18.6154C89.1065 19.071 89.7574 19.2663 90.4734 19.2663C91.2544 19.2663 91.8402 19.2012 92.2958 19.071C92.7515 18.9408 93.4024 18.7456 94.0533 18.4201L95.0296 20.9586C94.4438 21.4142 93.7278 21.7396 92.8166 22.0651C91.9053 22.3905 90.8639 22.5207 89.8876 22.5207ZM89.5621 11.9763C88.9763 11.9763 88.5207 12.1716 88.2604 12.6272C88 13.0828 87.8047 13.6686 87.7396 14.3195L87.8047 14.3846H91.3195V14.0592C91.3195 13.3432 91.1893 12.8876 90.929 12.5621C90.5385 12.1065 90.1479 11.9763 89.5621 11.9763ZM76.1538 22.5207C74.2663 22.5207 72.639 21.8698 71.5325 20.6982C70.426 19.5266 69.8402 17.9645 69.8402 16.142V15.6864C69.8402 13.6686 70.3609 12.0414 71.4024 10.7396C72.4438 9.50296 73.9408 8.85208 75.8935 8.85208C77.6509 8.85208 79.0828 9.37278 80.0592 10.4142C81.0355 11.4556 81.5562 12.9527 81.5562 14.7752V16.9231H74.071V16.9882C74.1361 17.7041 74.4615 18.1598 74.9172 18.6154C75.3728 19.071 76.0237 19.2663 76.7396 19.2663C77.5207 19.2663 78.1065 19.2012 78.5621 19.071C79.0177 18.9408 79.6686 18.7456 80.3195 18.4201L81.2959 20.9586C80.7101 21.4142 79.9941 21.7396 79.0828 22.0651C78.2367 22.3905 77.1953 22.5207 76.1538 22.5207ZM75.8935 11.9763C75.3077 11.9763 74.8521 12.1716 74.5917 12.6272C74.3314 13.0828 74.1361 13.6686 74.071 14.3195L74.1361 14.3846H77.6509V14.0592C77.6509 13.3432 77.5207 12.8876 77.2604 12.5621C76.8698 12.1065 76.4793 11.9763 75.8935 11.9763ZM63.7219 16.6627L65.1538 8.98226H68.8639L65.8698 22.1953H62.4201L60.2722 15.1657H60.2071L58.0592 22.1953H54.6095L51.5503 9.04733H55.3254L56.7574 16.7929H56.8225L58.9053 9.04733H61.5089L63.7219 16.6627ZM46.4734 18.4852C46.4734 18.1598 46.2781 17.8343 45.8876 17.574C45.497 17.3136 44.8461 17.0533 43.8698 16.858C42.3728 16.5325 41.2012 16.0769 40.4201 15.4911C39.639 14.8402 39.2485 13.9941 39.2485 12.8876C39.2485 11.716 39.7692 10.7397 40.6805 9.8935C41.6568 9.04735 42.9586 8.72189 44.5858 8.72189C46.2781 8.72189 47.7101 9.11243 48.6864 9.8935C49.7278 10.6746 50.1834 11.6509 50.1183 12.9527V13.0178H46.213C46.213 12.497 46.0828 12.1065 45.8225 11.8462C45.5621 11.5858 45.1065 11.4556 44.5858 11.4556C44.1302 11.4556 43.8047 11.5858 43.4793 11.8462C43.1538 12.1065 43.0237 12.3669 43.0237 12.7574C43.0237 13.1479 43.2189 13.4083 43.5444 13.6686C43.8698 13.929 44.5858 14.1243 45.5621 14.3195C47.1243 14.645 48.3609 15.1006 49.0769 15.6864C49.858 16.3373 50.2485 17.1834 50.2485 18.355C50.2485 19.5266 49.7278 20.503 48.6864 21.284C47.645 22.0651 46.2781 22.4556 44.5858 22.4556C42.8284 22.4556 41.3964 22 40.355 21.0888C39.3136 20.1775 38.858 19.2012 38.9231 18.0296V17.9645H42.6331C42.6331 18.6154 42.8284 19.071 43.2189 19.2663C43.6095 19.4615 44.1302 19.7219 44.716 19.7219C45.3018 19.7219 45.6923 19.5917 45.9527 19.3965C46.3432 19.2012 46.4734 18.8757 46.4734 18.4852ZM28.7692 8.98226L28.8994 10.8047C29.355 10.1539 29.8757 9.63315 30.4615 9.3077C31.1124 8.91717 31.7633 8.72189 32.5444 8.72189C33.7811 8.72189 34.8225 9.17753 35.5385 9.95859C36.2544 10.7397 36.645 12.1065 36.645 13.929V22.1953H32.6746V13.9941C32.6746 13.213 32.5444 12.7574 32.2189 12.432C31.8935 12.1065 31.4379 11.9763 30.8521 11.9763C30.4615 11.9763 30.1361 12.0414 29.8107 12.1716C29.4852 12.3018 29.2248 12.497 29.0296 12.7574V22.2604H24.9941V9.04733H28.7692V8.98226ZM22.5207 6.50888H18.4201V3.18935H22.5207V6.50888ZM22.5207 22.2604H18.4201V9.04733H22.5207V22.2604ZM9.43787 22.2604V11.8462H7.55029V8.98226H9.43787V7.61539C9.43787 6.11835 9.89349 4.94676 10.7396 4.1006C11.6509 3.25445 13.0178 3.05918 13.9941 3.05918C14.3195 3.05918 16.5976 3.05918 16.5976 3.05918V6.37871C16.5976 6.37871 15.3609 6.37871 15.1006 6.37871C14.5799 6.37871 14.1893 6.50887 13.929 6.76923C13.6686 7.02958 13.5385 7.42013 13.5385 7.94084V8.91717H16.0769V11.7811H13.5385V22.1302H9.43787V22.2604ZM1.62722 4.29586C1.62722 0.325448 3.71005 0 7.22485 0V3.12427C5.59763 3.12427 4.94674 3.38462 4.94674 4.36095V9.50296C4.94674 10.6746 5.01183 11.9112 4.0355 12.6923C5.01183 13.4734 4.94674 14.645 4.94674 15.8817V21.0237C4.94674 22.0651 5.59763 22.2604 7.22485 22.2604V25.3846C3.71005 25.3846 1.62722 25.0592 1.62722 21.0888V15.8817C1.62722 15.0355 1.62722 14.1243 0 14.1243V12.7574V11.3905C1.62722 11.3905 1.62722 10.4142 1.62722 9.63315V4.29586Z" fill="white"/>
</svg>
